<?xml version="1.0" encoding="UTF-8"?>
<svg id="Calque_1" data-name="Calque 1" xmlns="http://www.w3.org/2000/svg" viewBox="0 0 600 411">
  <defs>
    <style>
      .cls-1 {
        fill: #ff6b4a;
      }
    </style>
  </defs>
  <path class="cls-1" d="M297.33,116.84c4.46-.34,11.14,1.99,12.26,6.69,7.67,32.35,13.6,65.48,21.32,97.81,3.7-9.84,7.35-19.71,10.94-29.59,2.06-5.73,4.3-15.93,9.48-19.09,2.83-1.72,6.26-2.19,9.45-1.29,6.7,1.95,15.44,18.73,18.99,25.14,6.26.17,12.63-.16,18.9-.15,8.27.02,11.52,1.69,13.77,9.51-3.8,15.8-15.45,10.2-28.61,11.17-15.35,1.12-16.91-.5-24.02-13.12-2.4,5.84-4.3,12.42-6.49,18.4-4.18,11.71-8.56,23.3-12.65,35.03-2.07,5.95-3.9,11.36-10.93,12.65-5.27.96-11.32-1.74-12.69-7.19-2.36-9.38-4.07-19.26-5.97-28.77l-11.6-56.67c-.1-.89-.39-1.84-.61-2.73-.95,1.66-2.89,12.6-3.42,15.06-4.7,21.77-9.32,43.55-13.38,65.46-1.78,9.6-2.85,12.95-12.57,15.35-1.72-.42-3.92-.93-5.49-1.69-1.79-.85-3.28-2.21-4.28-3.92-1.9-3.17-5.5-14.08-6.86-17.93l-14.79-42.97c-1.14,1.89-6.01,10.07-8.02,11-8.52,2.94-26.63,2.61-35.62,1.71-8.36-.85-12.28-14.17-1.12-20.11l24.14.04c3.86-5.69,7.3-11.96,11.13-17.65,4.07-6.05,5.89-7.11,12.38-8.43,8.69,2.31,9.35,5.3,12.19,13.33,4.4,12.45,9.21,24.78,13.5,37.27,5.58-26.34,11.44-52.61,17.58-78.83,1.21-5.26,2.19-10.59,3.31-15.87,1.2-5.69,4.26-8.19,9.8-9.62Z"/>
  <path class="cls-1" d="M599.08,192.27c-3.43-54.53-28.49-105.42-69.63-141.38C489.03,15.26,436.13-2.86,382.35.48c-27.73,1.87-58.25,10.39-82.61,23.91C268.83,7.24,226.44-2.32,191.19.49c-54.46,3.83-105.17,29.13-140.98,70.34C14.04,112.37-3.81,166.75.68,221.65c4.28,54.19,29.91,104.46,71.25,139.75,41.2,35.61,95.05,53.07,149.31,48.41,23.79-1.95,57.84-10.36,78.14-23.23,31.99,16.47,74.32,27.24,110.47,23.34,52.16-2.98,102.89-28.95,137.52-67.79,36.69-40.96,55.34-94.98,51.71-149.85ZM258.14,378.94c-14.4,4.62-28.17,6.91-43.21,7.92-47.02,2.81-93.24-13.05-128.63-44.14-37.11-32.45-59.67-78.43-62.62-127.64-2.55-48.27,14.32-95.56,46.85-131.32,31.8-35.52,76.38-56.99,123.98-59.71,27.14-1.9,57.3,3.69,82.16,14.63-9.89,7.49-20.49,18.36-29.42,27.17l-40.72,40.37-56.12,55.91c-9.9,9.87-19.91,19.65-29.54,29.81-6,6.33-7.07,18.94-1,25.59,5.17,5.67,11.3,11.17,16.8,16.65l38.99,38.89,58.43,58.07c14.39,14.32,27.01,27.79,42.84,40.67-6.48,2.8-12.08,4.78-18.78,7.1ZM258.66,322.5c-9.17-9.24-18.4-18.43-27.69-27.56l-90.5-89.62c33.98-32.79,67.52-67.66,101.28-100.95l25.75-25.38c5.97-5.9,12.3-12.34,18.64-17.79,3.76-3.22,9.07-6.95,13.14-10.03,12.62,7.44,22.88,18.84,33.28,29.19,10.56,10.46,21.07,20.97,31.51,31.55,30.69,30.86,62.86,63.39,94.21,93.48-8.62,8.11-17.38,17.27-25.9,25.63-24.87,24.43-49.6,49.01-74.17,73.76-17.6,17.63-38.46,40.27-58.18,54.5-17.57-11.86-26.5-21.8-41.38-36.77ZM572.24,241.79c-10.01,47.88-38.68,89.8-79.68,116.47-39.84,26.03-88.46,34.98-134.96,24.88-10.93-2.19-25.05-6.61-35.11-11.32,12.75-10.34,23.4-21.65,35.11-33.14l62.07-61.8,39.85-39.7c6.15-6.07,12.54-12.07,18.54-18.2,6.26-6.4,6.44-19.19.5-25.8-6.21-6.91-13.14-13.51-19.71-20.09l-41.7-41.4-57.05-57.07c-11.23-11.23-24.87-25.46-36.72-35.62,19.18-9.08,42.65-13.94,63.75-15,14.55-.74,29.14.32,43.42,3.16,47.67,9.86,89.42,38.38,115.95,79.21,26.09,39.99,35.34,88.66,25.74,135.43Z"/>
</svg>